<svg xmlns="http://www.w3.org/2000/svg" xmlns:xlink="http://www.w3.org/1999/xlink" width="165.699" height="77.545" viewBox="0 0 165.699 77.545">
  <defs>
    <clipPath id="clip-path">
      <path id="Caminho_9232" data-name="Caminho 9232" d="M268.879,77.962v59.661h18.206v-1.255H270.265V77.962Z" transform="translate(-268.879 -77.962)" fill="none"/>
    </clipPath>
  </defs>
  <g id="Grupo_7762" data-name="Grupo 7762" transform="translate(-179.983 -77.962)">
    <path id="Caminho_8999" data-name="Caminho 8999" d="M283.4,105.879h1.385V77.963H283.4Zm9.961,0h1.319V92.812h16.359V91.558H294.678V79.217h18.074V77.963H293.359Zm25.33,0h19.855v-1.254h-18.47V92.482h16.557V91.228H320.074V79.217h18.272V77.963H318.689Z" transform="translate(-30.593 0)" fill="#3a3939"/>
    <path id="Caminho_9000" data-name="Caminho 9000" d="M193.7,151.226a13.232,13.232,0,0,0,4.419-.66,12.3,12.3,0,0,0,3.628-1.716,20.679,20.679,0,0,0,2.9-2.376l-.923-.924a21.3,21.3,0,0,1-2.7,2.244,11.75,11.75,0,0,1-3.3,1.584,12.461,12.461,0,0,1-3.957.594,11.081,11.081,0,0,1-3.958-.66,11.584,11.584,0,0,1-6.069-4.752A11.86,11.86,0,0,1,182.028,141a12.472,12.472,0,0,1-.66-4.157v-.066a14.4,14.4,0,0,1,.594-4.157,14.107,14.107,0,0,1,1.715-3.63,13.518,13.518,0,0,1,2.639-2.838,12.706,12.706,0,0,1,7.454-2.574,13.023,13.023,0,0,1,4.09.594,14.13,14.13,0,0,1,3.166,1.518,15.728,15.728,0,0,1,2.507,2.112l.989-.99a25.391,25.391,0,0,0-2.111-1.782,13.947,13.947,0,0,0-2.374-1.386,11.357,11.357,0,0,0-2.771-.924,14.3,14.3,0,0,0-3.5-.33,12.544,12.544,0,0,0-4.486.726,14.267,14.267,0,0,0-3.826,2.046,14.665,14.665,0,0,0-2.9,3.168,13.767,13.767,0,0,0-1.913,3.96,16.774,16.774,0,0,0-.659,4.488v.132a16.391,16.391,0,0,0,.659,4.488,13.776,13.776,0,0,0,1.913,3.96,13.372,13.372,0,0,0,6.662,5.147,14.2,14.2,0,0,0,4.486.726" transform="translate(0 -13.142)" fill="#3a3939"/>
    <path id="Caminho_9001" data-name="Caminho 9001" d="M234.115,151.227a13.789,13.789,0,0,0,4.749-.792,13.4,13.4,0,0,0,6.728-5.28,12.42,12.42,0,0,0,1.847-3.893,14.366,14.366,0,0,0,.66-4.421v-.066a14.07,14.07,0,0,0-.66-4.421,13.48,13.48,0,0,0-1.781-3.96,16.582,16.582,0,0,0-2.9-3.167,15.755,15.755,0,0,0-3.892-2.112,15.47,15.47,0,0,0-9.367,0,15.763,15.763,0,0,0-3.891,2.112,14.662,14.662,0,0,0-2.9,3.167,15.585,15.585,0,0,0-1.847,3.96,16.261,16.261,0,0,0-.594,4.421v.066a16.621,16.621,0,0,0,.594,4.421,16.25,16.25,0,0,0,1.847,3.893,13.4,13.4,0,0,0,6.728,5.28,13.682,13.682,0,0,0,4.683.792m.132-1.254a12.58,12.58,0,0,1-4.222-.66,12.407,12.407,0,0,1-3.43-1.914,14.136,14.136,0,0,1-2.7-2.9,14.424,14.424,0,0,1-2.243-7.721v-.066a14.286,14.286,0,0,1,.594-4.092,12.5,12.5,0,0,1,1.649-3.563,10.8,10.8,0,0,1,2.639-2.838,11.7,11.7,0,0,1,3.43-1.914,12.508,12.508,0,0,1,4.156-.726,11.936,11.936,0,0,1,4.155.726,11.247,11.247,0,0,1,3.5,1.914,11.1,11.1,0,0,1,2.639,2.9,13.692,13.692,0,0,1,1.715,3.564,14.285,14.285,0,0,1,.594,4.092v.132a13.51,13.51,0,0,1-.594,4.026,13.935,13.935,0,0,1-1.648,3.63,12.523,12.523,0,0,1-6.069,4.752,12.466,12.466,0,0,1-4.156.66" transform="translate(-11.916 -13.142)" fill="#3a3939"/>
    <g id="Grupo_7761" data-name="Grupo 7761" transform="translate(242.581 77.962)">
      <g id="Grupo_7760" data-name="Grupo 7760" clip-path="url(#clip-path)">
        <path id="Caminho_9002" data-name="Caminho 9002" d="M279.885,165.576l-31.332-8.051.132-.462,31.332,7.985Z" transform="translate(-262.866 -101.362)" fill="#d8005f"/>
        <path id="Caminho_9003" data-name="Caminho 9003" d="M279.979,165.2l-31.332-7.985.132-.528,31.332,8.051Z" transform="translate(-262.894 -101.251)" fill="#d8005a"/>
        <path id="Caminho_9004" data-name="Caminho 9004" d="M280.072,164.827l-31.332-7.985.065-.528,31.4,8.051Z" transform="translate(-262.921 -101.141)" fill="#d90058"/>
        <path id="Caminho_9005" data-name="Caminho 9005" d="M280.166,164.545l-31.332-8.052.065-.462,31.4,7.985Z" transform="translate(-262.949 -101.057)" fill="#d90054"/>
        <path id="Caminho_9006" data-name="Caminho 9006" d="M280.232,164.171l-31.4-8.051.132-.462,31.4,7.985Z" transform="translate(-262.949 -100.946)" fill="#d80051"/>
        <path id="Caminho_9007" data-name="Caminho 9007" d="M280.326,163.8l-31.4-7.985.132-.528,31.4,8.052Z" transform="translate(-262.977 -100.836)" fill="#d9004e"/>
        <path id="Caminho_9008" data-name="Caminho 9008" d="M280.419,163.421l-31.4-7.985.132-.528,31.4,8.051Z" transform="translate(-263.004 -100.725)" fill="#d9004b"/>
        <path id="Caminho_9009" data-name="Caminho 9009" d="M280.513,163.14l-31.4-8.051.132-.462,31.4,7.985Z" transform="translate(-263.032 -100.641)" fill="#d9004b"/>
        <path id="Caminho_9010" data-name="Caminho 9010" d="M280.607,162.765l-31.4-8.051.132-.462,31.4,8.051Z" transform="translate(-263.06 -100.531)" fill="#d90047"/>
        <path id="Caminho_9011" data-name="Caminho 9011" d="M280.7,162.39,249.3,154.4l.132-.528,31.4,8.051Z" transform="translate(-263.088 -100.42)" fill="#d90045"/>
        <path id="Caminho_9012" data-name="Caminho 9012" d="M280.794,162.081l-31.4-8.051.132-.528,31.4,8.051Z" transform="translate(-263.115 -100.309)" fill="#d90041"/>
        <path id="Caminho_9013" data-name="Caminho 9013" d="M280.888,161.734l-31.4-8.051.132-.462,31.4,7.985Z" transform="translate(-263.143 -100.226)" fill="#d9003e"/>
        <path id="Caminho_9014" data-name="Caminho 9014" d="M280.981,161.359l-31.4-8.052.132-.462,31.4,8.051Z" transform="translate(-263.171 -100.115)" fill="#d9003a"/>
        <path id="Caminho_9015" data-name="Caminho 9015" d="M281.075,160.984,249.677,153l.132-.528,31.4,8.051Z" transform="translate(-263.198 -100.004)" fill="#d90037"/>
        <path id="Caminho_9016" data-name="Caminho 9016" d="M281.169,160.675l-31.4-8.051.132-.528,31.4,8.051Z" transform="translate(-263.226 -99.893)" fill="#d90033"/>
        <path id="Caminho_9017" data-name="Caminho 9017" d="M281.262,160.328l-31.4-8.051.132-.462,31.333,7.985Z" transform="translate(-263.254 -99.81)" fill="#d90030"/>
        <path id="Caminho_9018" data-name="Caminho 9018" d="M281.356,159.953l-31.4-8.052.132-.462,31.333,8.051Z" transform="translate(-263.281 -99.699)" fill="#d9002d"/>
        <path id="Caminho_9019" data-name="Caminho 9019" d="M281.384,159.578l-31.332-7.985.132-.528,31.332,8.051Z" transform="translate(-263.309 -99.588)" fill="#d9002a"/>
        <path id="Caminho_9020" data-name="Caminho 9020" d="M281.478,159.269l-31.332-8.052.132-.528,31.332,8.051Z" transform="translate(-263.337 -99.477)" fill="#d90028"/>
        <path id="Caminho_9021" data-name="Caminho 9021" d="M281.571,158.922l-31.332-8.051.132-.462,31.332,7.985Z" transform="translate(-263.365 -99.394)" fill="#d90029"/>
        <path id="Caminho_9022" data-name="Caminho 9022" d="M281.665,158.547,250.333,150.5l.132-.462,31.332,8.051Z" transform="translate(-263.392 -99.283)" fill="#d90026"/>
        <path id="Caminho_9023" data-name="Caminho 9023" d="M281.758,158.172l-31.332-7.985.132-.528,31.332,8.051Z" transform="translate(-263.42 -99.172)" fill="#d90022"/>
        <path id="Caminho_9024" data-name="Caminho 9024" d="M281.852,157.864l-31.332-8.051.132-.528,31.332,8.051Z" transform="translate(-263.448 -99.061)" fill="#d90020"/>
        <path id="Caminho_9025" data-name="Caminho 9025" d="M281.946,157.516l-31.332-8.051.132-.462,31.332,7.985Z" transform="translate(-263.476 -98.978)" fill="#d9001d"/>
        <path id="Caminho_9026" data-name="Caminho 9026" d="M282.04,157.142l-31.332-8.052.132-.462,31.332,8.051Z" transform="translate(-263.503 -98.867)" fill="#d9001a"/>
        <path id="Caminho_9027" data-name="Caminho 9027" d="M282.133,156.767,250.8,148.781l.132-.528,31.332,8.051Z" transform="translate(-263.531 -98.756)" fill="#d90018"/>
        <path id="Caminho_9028" data-name="Caminho 9028" d="M282.227,156.485l-31.332-8.051.065-.462,31.4,7.985Z" transform="translate(-263.559 -98.673)" fill="#d90016"/>
        <path id="Caminho_9029" data-name="Caminho 9029" d="M282.321,156.111l-31.332-8.051.065-.462,31.4,7.985Z" transform="translate(-263.586 -98.562)" fill="#d90014"/>
        <path id="Caminho_9030" data-name="Caminho 9030" d="M282.386,155.736l-31.4-7.985.132-.528,31.4,8.051Z" transform="translate(-263.586 -98.451)" fill="#d90010"/>
        <path id="Caminho_9031" data-name="Caminho 9031" d="M282.48,155.361l-31.4-7.985.132-.528,31.4,8.051Z" transform="translate(-263.614 -98.34)" fill="#d8000d"/>
        <path id="Caminho_9032" data-name="Caminho 9032" d="M282.574,155.08l-31.4-8.052.132-.462,31.4,7.985Z" transform="translate(-263.642 -98.257)" fill="#d9000e"/>
        <path id="Caminho_9033" data-name="Caminho 9033" d="M282.667,154.7l-31.4-8.051.132-.462,31.4,7.985Z" transform="translate(-263.67 -98.146)" fill="#d8000d"/>
        <path id="Caminho_9034" data-name="Caminho 9034" d="M282.761,154.33l-31.4-7.985.132-.528,31.4,8.051Z" transform="translate(-263.697 -98.035)" fill="#d8000d"/>
        <path id="Caminho_9035" data-name="Caminho 9035" d="M282.855,153.955l-31.4-7.985.132-.528,31.4,8.051Z" transform="translate(-263.725 -97.924)" fill="#d8000d"/>
        <path id="Caminho_9036" data-name="Caminho 9036" d="M282.948,153.674l-31.4-8.051.132-.462,31.4,7.985Z" transform="translate(-263.753 -97.841)" fill="#d8000d"/>
        <path id="Caminho_9037" data-name="Caminho 9037" d="M283.042,153.3l-31.4-8.051.132-.462,31.4,7.985Z" transform="translate(-263.78 -97.73)" fill="#d9000d"/>
        <path id="Caminho_9038" data-name="Caminho 9038" d="M283.136,152.924l-31.4-7.985.132-.528,31.4,8.051Z" transform="translate(-263.808 -97.619)" fill="#d9000d"/>
        <path id="Caminho_9039" data-name="Caminho 9039" d="M283.229,152.549l-31.4-7.985.132-.528,31.4,8.051Z" transform="translate(-263.836 -97.509)" fill="#d9000c"/>
        <path id="Caminho_9040" data-name="Caminho 9040" d="M283.323,152.268l-31.4-8.051.132-.462,31.4,7.985Z" transform="translate(-263.863 -97.425)" fill="#d9000c"/>
        <path id="Caminho_9041" data-name="Caminho 9041" d="M283.417,151.893l-31.4-8.051.132-.462,31.333,8.051Z" transform="translate(-263.891 -97.314)" fill="#d9000c"/>
        <path id="Caminho_9042" data-name="Caminho 9042" d="M283.511,151.518l-31.4-7.985.132-.528,31.333,8.051Z" transform="translate(-263.919 -97.204)" fill="#da030c"/>
        <path id="Caminho_9043" data-name="Caminho 9043" d="M283.538,151.209l-31.332-8.051.132-.528,31.332,8.051Z" transform="translate(-263.947 -97.093)" fill="#da0c0c"/>
        <path id="Caminho_9044" data-name="Caminho 9044" d="M283.632,150.862,252.3,142.811l.132-.462,31.332,7.985Z" transform="translate(-263.974 -97.009)" fill="#db0b0c"/>
        <path id="Caminho_9045" data-name="Caminho 9045" d="M283.726,150.487l-31.332-8.051.132-.462,31.332,8.051Z" transform="translate(-264.002 -96.899)" fill="#db110b"/>
        <path id="Caminho_9046" data-name="Caminho 9046" d="M283.819,150.112l-31.332-7.985.132-.528,31.332,8.051Z" transform="translate(-264.03 -96.788)" fill="#db150b"/>
        <path id="Caminho_9047" data-name="Caminho 9047" d="M283.913,149.8l-31.332-8.051.132-.528,31.332,8.051Z" transform="translate(-264.058 -96.677)" fill="#dc190b"/>
        <path id="Caminho_9048" data-name="Caminho 9048" d="M284.007,149.456,252.675,141.4l.132-.462,31.332,7.985Z" transform="translate(-264.085 -96.594)" fill="#dc1d0a"/>
        <path id="Caminho_9049" data-name="Caminho 9049" d="M284.1,149.082l-31.332-8.051.132-.462,31.332,8.051Z" transform="translate(-264.113 -96.483)" fill="#dc200a"/>
        <path id="Caminho_9050" data-name="Caminho 9050" d="M284.194,148.707l-31.332-7.985.132-.528,31.332,8.051Z" transform="translate(-264.141 -96.372)" fill="#dd2509"/>
        <path id="Caminho_9051" data-name="Caminho 9051" d="M284.288,148.4l-31.332-8.051.065-.528,31.4,8.051Z" transform="translate(-264.168 -96.261)" fill="#dd2809"/>
        <path id="Caminho_9052" data-name="Caminho 9052" d="M284.381,148.051,253.049,140l.065-.462,31.4,7.985Z" transform="translate(-264.196 -96.178)" fill="#de2e08"/>
        <path id="Caminho_9053" data-name="Caminho 9053" d="M284.447,147.676l-31.4-8.051.132-.462,31.4,8.051Z" transform="translate(-264.196 -96.067)" fill="#de3207"/>
        <path id="Caminho_9054" data-name="Caminho 9054" d="M284.541,147.3l-31.4-7.985.132-.528,31.4,8.051Z" transform="translate(-264.224 -95.956)" fill="#df3606"/>
        <path id="Caminho_9055" data-name="Caminho 9055" d="M284.635,146.992l-31.4-8.051.132-.528,31.4,8.051Z" transform="translate(-264.251 -95.845)" fill="#df3705"/>
        <path id="Caminho_9056" data-name="Caminho 9056" d="M284.728,146.645l-31.4-8.051.132-.462,31.4,7.985Z" transform="translate(-264.279 -95.762)" fill="#e03a04"/>
        <path id="Caminho_9057" data-name="Caminho 9057" d="M284.822,146.27l-31.4-8.051.132-.462,31.4,8.051Z" transform="translate(-264.307 -95.651)" fill="#e03f01"/>
        <path id="Caminho_9058" data-name="Caminho 9058" d="M284.916,145.9l-31.4-7.985.132-.528,31.4,8.051Z" transform="translate(-264.335 -95.54)" fill="#e14300"/>
        <path id="Caminho_9059" data-name="Caminho 9059" d="M285.009,145.614l-31.4-8.051.132-.462,31.4,7.985Z" transform="translate(-264.362 -95.457)" fill="#e34800"/>
        <path id="Caminho_9060" data-name="Caminho 9060" d="M285.1,145.239l-31.4-8.051.132-.462,31.4,7.985Z" transform="translate(-264.39 -95.346)" fill="#e34d00"/>
        <path id="Caminho_9061" data-name="Caminho 9061" d="M285.2,144.864l-31.4-7.985.132-.528,31.4,8.051Z" transform="translate(-264.418 -95.235)" fill="#e45000"/>
        <path id="Caminho_9062" data-name="Caminho 9062" d="M285.29,144.489l-31.4-7.985.132-.528,31.4,8.051Z" transform="translate(-264.445 -95.124)" fill="#e45500"/>
        <path id="Caminho_9063" data-name="Caminho 9063" d="M285.384,144.208l-31.4-8.051.132-.462,31.4,7.985Z" transform="translate(-264.473 -95.041)" fill="#e45900"/>
        <path id="Caminho_9064" data-name="Caminho 9064" d="M285.478,143.833l-31.4-8.051.132-.462,31.333,7.985Z" transform="translate(-264.501 -94.93)" fill="#e55e00"/>
        <path id="Caminho_9065" data-name="Caminho 9065" d="M285.571,143.458l-31.4-7.985.132-.528L285.638,143Z" transform="translate(-264.529 -94.819)" fill="#e66300"/>
        <path id="Caminho_9066" data-name="Caminho 9066" d="M285.6,143.083,254.267,135.1l.132-.528,31.332,8.051Z" transform="translate(-264.556 -94.708)" fill="#e76700"/>
        <path id="Caminho_9067" data-name="Caminho 9067" d="M285.693,142.8l-31.332-8.051.132-.462,31.332,7.985Z" transform="translate(-264.584 -94.625)" fill="#e86900"/>
        <path id="Caminho_9068" data-name="Caminho 9068" d="M285.786,142.427l-31.332-8.051.132-.462,31.332,7.985Z" transform="translate(-264.612 -94.514)" fill="#e86d00"/>
        <path id="Caminho_9069" data-name="Caminho 9069" d="M285.88,142.052l-31.332-7.985.132-.528,31.332,8.051Z" transform="translate(-264.639 -94.403)" fill="#e97200"/>
        <path id="Caminho_9070" data-name="Caminho 9070" d="M285.974,141.678l-31.332-7.985.132-.528,31.332,8.052Z" transform="translate(-264.667 -94.292)" fill="#eb7600"/>
        <path id="Caminho_9071" data-name="Caminho 9071" d="M286.068,141.4l-31.332-8.051.132-.462,31.332,7.985Z" transform="translate(-264.695 -94.209)" fill="#ec7c00"/>
        <path id="Caminho_9072" data-name="Caminho 9072" d="M286.161,141.022l-31.332-8.051.132-.462,31.332,8.052Z" transform="translate(-264.723 -94.098)" fill="#ed8000"/>
        <path id="Caminho_9073" data-name="Caminho 9073" d="M286.255,140.647l-31.332-7.985.132-.528,31.332,8.051Z" transform="translate(-264.75 -93.987)" fill="#ee8500"/>
        <path id="Caminho_9074" data-name="Caminho 9074" d="M286.349,140.338l-31.332-8.051.065-.528,31.4,8.051Z" transform="translate(-264.778 -93.876)" fill="#ef8a00"/>
        <path id="Caminho_9075" data-name="Caminho 9075" d="M286.442,139.991l-31.332-8.051.065-.462,31.4,7.985Z" transform="translate(-264.806 -93.793)" fill="#f08e00"/>
        <path id="Caminho_9076" data-name="Caminho 9076" d="M286.508,139.616l-31.4-8.051.132-.462,31.4,8.051Z" transform="translate(-264.806 -93.682)" fill="#f19300"/>
        <path id="Caminho_9077" data-name="Caminho 9077" d="M286.6,139.241l-31.4-7.985.132-.528,31.4,8.051Z" transform="translate(-264.833 -93.572)" fill="#f19700"/>
        <path id="Caminho_9078" data-name="Caminho 9078" d="M286.7,138.932l-31.4-8.051.132-.528,31.4,8.051Z" transform="translate(-264.861 -93.461)" fill="#f19b00"/>
        <path id="Caminho_9079" data-name="Caminho 9079" d="M286.789,138.585l-31.4-8.051.132-.462,31.4,7.985Z" transform="translate(-264.889 -93.377)" fill="#f19b00"/>
        <path id="Caminho_9080" data-name="Caminho 9080" d="M286.883,138.21l-31.4-8.051.132-.462,31.4,8.051Z" transform="translate(-264.917 -93.267)" fill="#f19f00"/>
        <path id="Caminho_9081" data-name="Caminho 9081" d="M286.976,137.835l-31.4-7.985.132-.528,31.4,8.051Z" transform="translate(-264.944 -93.156)" fill="#f2a300"/>
        <path id="Caminho_9082" data-name="Caminho 9082" d="M287.07,137.526l-31.4-8.051.132-.528L287.2,137Z" transform="translate(-264.972 -93.045)" fill="#f3a700"/>
        <path id="Caminho_9083" data-name="Caminho 9083" d="M287.164,137.179l-31.4-8.051.132-.462,31.4,7.985Z" transform="translate(-265 -92.962)" fill="#f3ab00"/>
        <path id="Caminho_9084" data-name="Caminho 9084" d="M287.257,136.8l-31.4-8.051.132-.462,31.4,8.051Z" transform="translate(-265.027 -92.851)" fill="#f4ae00"/>
        <path id="Caminho_9085" data-name="Caminho 9085" d="M287.351,136.429l-31.4-7.985.132-.528,31.4,8.052Z" transform="translate(-265.055 -92.74)" fill="#f5b300"/>
        <path id="Caminho_9086" data-name="Caminho 9086" d="M287.445,136.12l-31.4-8.051.132-.528,31.4,8.052Z" transform="translate(-265.083 -92.629)" fill="#f5b500"/>
        <path id="Caminho_9087" data-name="Caminho 9087" d="M287.539,135.773l-31.4-8.051.132-.462,31.333,7.985Z" transform="translate(-265.11 -92.546)" fill="#f7ba00"/>
        <path id="Caminho_9088" data-name="Caminho 9088" d="M287.632,135.4l-31.4-8.051.132-.462,31.333,8.052Z" transform="translate(-265.138 -92.435)" fill="#f8be00"/>
        <path id="Caminho_9089" data-name="Caminho 9089" d="M287.66,135.023l-31.332-7.985.132-.528,31.332,8.051Z" transform="translate(-265.166 -92.324)" fill="#f9c300"/>
        <path id="Caminho_9090" data-name="Caminho 9090" d="M287.754,134.742l-31.332-8.051.132-.462,31.332,7.985Z" transform="translate(-265.194 -92.241)" fill="#fac400"/>
        <path id="Caminho_9091" data-name="Caminho 9091" d="M287.847,134.367l-31.332-8.051.132-.462,31.332,7.985Z" transform="translate(-265.221 -92.13)" fill="#fac600"/>
        <path id="Caminho_9092" data-name="Caminho 9092" d="M287.941,133.992l-31.332-7.985.132-.528,31.332,8.051Z" transform="translate(-265.249 -92.019)" fill="#fbcc00"/>
        <path id="Caminho_9093" data-name="Caminho 9093" d="M288.035,133.618,256.7,125.632l.132-.528,31.332,8.051Z" transform="translate(-265.277 -91.908)" fill="#fccf00"/>
        <path id="Caminho_9094" data-name="Caminho 9094" d="M288.128,133.336,256.8,125.285l.132-.462,31.332,7.985Z" transform="translate(-265.305 -91.825)" fill="#fcd200"/>
        <path id="Caminho_9095" data-name="Caminho 9095" d="M288.222,132.962,256.89,124.91l.132-.462,31.332,7.985Z" transform="translate(-265.332 -91.714)" fill="#fcd600"/>
        <path id="Caminho_9096" data-name="Caminho 9096" d="M288.316,132.587,256.984,124.6l.132-.528,31.332,8.051Z" transform="translate(-265.36 -91.603)" fill="#fdd900"/>
        <path id="Caminho_9097" data-name="Caminho 9097" d="M288.409,132.212l-31.332-7.985.132-.528,31.332,8.051Z" transform="translate(-265.388 -91.492)" fill="#fddc00"/>
        <path id="Caminho_9098" data-name="Caminho 9098" d="M288.5,131.931l-31.332-8.051.065-.462,31.4,7.985Z" transform="translate(-265.415 -91.409)" fill="#fedf00"/>
        <path id="Caminho_9099" data-name="Caminho 9099" d="M288.6,131.556,257.265,123.5l.065-.462,31.4,8.051Z" transform="translate(-265.443 -91.298)" fill="#fde000"/>
        <path id="Caminho_9100" data-name="Caminho 9100" d="M288.663,131.181l-31.4-7.985.132-.528,31.4,8.051Z" transform="translate(-265.443 -91.187)" fill="#fbe005"/>
        <path id="Caminho_9101" data-name="Caminho 9101" d="M288.756,130.872l-31.4-8.051.132-.528,31.4,8.051Z" transform="translate(-265.471 -91.076)" fill="#fadf10"/>
        <path id="Caminho_9102" data-name="Caminho 9102" d="M288.85,130.525l-31.4-8.052.132-.462,31.4,7.985Z" transform="translate(-265.498 -90.993)" fill="#fadf10"/>
        <path id="Caminho_9103" data-name="Caminho 9103" d="M288.944,130.15l-31.4-8.051.132-.462,31.4,8.051Z" transform="translate(-265.526 -90.882)" fill="#f8de0f"/>
        <path id="Caminho_9104" data-name="Caminho 9104" d="M289.037,129.775l-31.4-7.985.132-.528,31.4,8.051Z" transform="translate(-265.554 -90.771)" fill="#f4dd12"/>
        <path id="Caminho_9105" data-name="Caminho 9105" d="M289.131,129.466l-31.4-8.051.132-.528,31.4,8.051Z" transform="translate(-265.582 -90.66)" fill="#f1dc13"/>
        <path id="Caminho_9106" data-name="Caminho 9106" d="M289.225,129.119l-31.4-8.051.132-.462,31.4,7.985Z" transform="translate(-265.609 -90.577)" fill="#edda15"/>
        <path id="Caminho_9107" data-name="Caminho 9107" d="M289.318,128.744l-31.4-8.051.132-.462,31.4,8.051Z" transform="translate(-265.637 -90.466)" fill="#ead916"/>
        <path id="Caminho_9108" data-name="Caminho 9108" d="M289.412,128.369l-31.4-7.985.132-.528,31.4,8.051Z" transform="translate(-265.665 -90.355)" fill="#e7d718"/>
        <path id="Caminho_9109" data-name="Caminho 9109" d="M289.506,128.06l-31.4-8.051.132-.528,31.4,8.051Z" transform="translate(-265.692 -90.244)" fill="#e5d71a"/>
        <path id="Caminho_9110" data-name="Caminho 9110" d="M289.6,127.713l-31.4-8.051.132-.462,31.4,7.985Z" transform="translate(-265.72 -90.161)" fill="#e2d619"/>
        <path id="Caminho_9111" data-name="Caminho 9111" d="M289.693,127.338l-31.4-8.051.132-.462,31.333,8.051Z" transform="translate(-265.748 -90.05)" fill="#ded419"/>
        <path id="Caminho_9112" data-name="Caminho 9112" d="M289.787,126.963l-31.4-7.985.132-.528,31.333,8.051Z" transform="translate(-265.776 -89.939)" fill="#dbd317"/>
        <path id="Caminho_9113" data-name="Caminho 9113" d="M289.814,126.654,258.482,118.6l.132-.528,31.332,8.051Z" transform="translate(-265.803 -89.829)" fill="#dcd318"/>
        <path id="Caminho_9114" data-name="Caminho 9114" d="M289.908,126.307l-31.332-8.051.132-.462,31.332,7.985Z" transform="translate(-265.831 -89.745)" fill="#d9d216"/>
        <path id="Caminho_9115" data-name="Caminho 9115" d="M290,125.932l-31.332-8.051.132-.462,31.332,8.051Z" transform="translate(-265.859 -89.635)" fill="#d7d115"/>
        <path id="Caminho_9116" data-name="Caminho 9116" d="M290.1,125.558l-31.332-7.985.132-.528,31.332,8.051Z" transform="translate(-265.887 -89.524)" fill="#d5d016"/>
        <path id="Caminho_9117" data-name="Caminho 9117" d="M290.189,125.276l-31.332-8.051.132-.462,31.332,7.985Z" transform="translate(-265.914 -89.44)" fill="#d2cf16"/>
        <path id="Caminho_9118" data-name="Caminho 9118" d="M290.283,124.9l-31.332-8.051.132-.462,31.332,7.985Z" transform="translate(-265.942 -89.33)" fill="#d0ce15"/>
        <path id="Caminho_9119" data-name="Caminho 9119" d="M290.377,124.527l-31.332-7.985.132-.528,31.332,8.051Z" transform="translate(-265.97 -89.219)" fill="#cdcd13"/>
        <path id="Caminho_9120" data-name="Caminho 9120" d="M290.47,124.152l-31.332-7.985.132-.528L290.6,123.69Z" transform="translate(-265.997 -89.108)" fill="#cbcc14"/>
        <path id="Caminho_9121" data-name="Caminho 9121" d="M290.564,123.871l-31.333-8.051.066-.462,31.4,7.985Z" transform="translate(-266.025 -89.025)" fill="#c9cb13"/>
        <path id="Caminho_9122" data-name="Caminho 9122" d="M290.658,123.5l-31.332-8.051.065-.462,31.4,7.985Z" transform="translate(-266.053 -88.914)" fill="#c6ca13"/>
        <path id="Caminho_9123" data-name="Caminho 9123" d="M290.723,123.121l-31.4-7.985.132-.528,31.4,8.051Z" transform="translate(-266.053 -88.803)" fill="#c4c914"/>
        <path id="Caminho_9124" data-name="Caminho 9124" d="M290.817,122.746l-31.4-7.985.132-.528,31.4,8.051Z" transform="translate(-266.08 -88.692)" fill="#c0c812"/>
        <path id="Caminho_9125" data-name="Caminho 9125" d="M290.911,122.465l-31.4-8.051.132-.462,31.4,7.985Z" transform="translate(-266.108 -88.609)" fill="#c2c813"/>
        <path id="Caminho_9126" data-name="Caminho 9126" d="M291,122.09l-31.4-8.051.132-.462,31.4,7.985Z" transform="translate(-266.136 -88.498)" fill="#bfc713"/>
        <path id="Caminho_9127" data-name="Caminho 9127" d="M291.1,121.715l-31.4-7.985.132-.528,31.4,8.051Z" transform="translate(-266.164 -88.387)" fill="#bcc614"/>
        <path id="Caminho_9128" data-name="Caminho 9128" d="M291.192,121.34l-31.4-7.985.132-.528,31.4,8.051Z" transform="translate(-266.191 -88.276)" fill="#bbc615"/>
        <path id="Caminho_9129" data-name="Caminho 9129" d="M291.286,121.059l-31.4-8.051.132-.462,31.4,7.985Z" transform="translate(-266.219 -88.193)" fill="#b8c415"/>
        <path id="Caminho_9130" data-name="Caminho 9130" d="M291.379,120.684l-31.4-8.051.132-.462,31.4,8.051Z" transform="translate(-266.247 -88.082)" fill="#b7c415"/>
        <path id="Caminho_9131" data-name="Caminho 9131" d="M291.473,120.309l-31.4-7.985.132-.528,31.4,8.052Z" transform="translate(-266.274 -87.971)" fill="#b3c215"/>
        <path id="Caminho_9132" data-name="Caminho 9132" d="M291.567,120l-31.4-8.051.132-.528,31.4,8.051Z" transform="translate(-266.302 -87.86)" fill="#b1c216"/>
        <path id="Caminho_9133" data-name="Caminho 9133" d="M291.66,119.653l-31.4-8.051.132-.462,31.4,7.985Z" transform="translate(-266.33 -87.777)" fill="#b0c117"/>
        <path id="Caminho_9134" data-name="Caminho 9134" d="M291.754,119.278l-31.4-8.051.132-.462,31.333,8.052Z" transform="translate(-266.358 -87.666)" fill="#adc018"/>
        <path id="Caminho_9135" data-name="Caminho 9135" d="M291.848,118.9l-31.4-7.985.132-.528,31.333,8.051Z" transform="translate(-266.385 -87.555)" fill="#acc01a"/>
        <path id="Caminho_9136" data-name="Caminho 9136" d="M291.875,118.594l-31.332-8.051.132-.528,31.332,8.051Z" transform="translate(-266.413 -87.444)" fill="#a9be19"/>
        <path id="Caminho_9137" data-name="Caminho 9137" d="M291.969,118.247,260.636,110.2l.132-.462,31.332,7.985Z" transform="translate(-266.44 -87.361)" fill="#aabf19"/>
        <path id="Caminho_9138" data-name="Caminho 9138" d="M292.063,117.873l-31.332-8.051.132-.462,31.332,8.051Z" transform="translate(-266.468 -87.25)" fill="#a9be19"/>
        <path id="Caminho_9139" data-name="Caminho 9139" d="M292.156,117.5l-31.332-7.985.132-.528,31.332,8.051Z" transform="translate(-266.496 -87.139)" fill="#a7be1a"/>
        <path id="Caminho_9140" data-name="Caminho 9140" d="M292.25,117.189l-31.332-8.051.132-.528,31.332,8.051Z" transform="translate(-266.524 -87.028)" fill="#a4bd1b"/>
        <path id="Caminho_9141" data-name="Caminho 9141" d="M292.344,116.842l-31.332-8.051.132-.462,31.332,7.985Z" transform="translate(-266.552 -86.945)" fill="#a3bc1d"/>
        <path id="Caminho_9142" data-name="Caminho 9142" d="M292.437,116.467l-31.332-8.051.132-.462L292.569,116Z" transform="translate(-266.579 -86.834)" fill="#a2bc1e"/>
        <path id="Caminho_9143" data-name="Caminho 9143" d="M292.531,116.092,261.2,108.107l.132-.528,31.332,8.051Z" transform="translate(-266.607 -86.723)" fill="#a1bc1e"/>
        <path id="Caminho_9144" data-name="Caminho 9144" d="M292.625,115.783l-31.332-8.051.132-.528,31.332,8.051Z" transform="translate(-266.635 -86.612)" fill="#a0bb20"/>
        <path id="Caminho_9145" data-name="Caminho 9145" d="M292.719,115.436l-31.332-8.051.066-.462,31.4,7.985Z" transform="translate(-266.662 -86.529)" fill="#9eba1f"/>
        <path id="Caminho_9146" data-name="Caminho 9146" d="M292.812,115.061l-31.332-8.051.066-.462,31.4,8.051Z" transform="translate(-266.69 -86.418)" fill="#9cba20"/>
        <path id="Caminho_9147" data-name="Caminho 9147" d="M292.878,114.686l-31.4-7.985.132-.528,31.4,8.051Z" transform="translate(-266.69 -86.308)" fill="#99b920"/>
        <path id="Caminho_9148" data-name="Caminho 9148" d="M292.972,114.4l-31.4-8.051.132-.462,31.4,7.985Z" transform="translate(-266.718 -86.224)" fill="#9ab920"/>
        <path id="Caminho_9149" data-name="Caminho 9149" d="M293.065,114.03l-31.4-8.051.132-.462,31.4,7.985Z" transform="translate(-266.745 -86.113)" fill="#99b921"/>
        <path id="Caminho_9150" data-name="Caminho 9150" d="M293.159,113.655l-31.4-7.985.132-.528,31.4,8.052Z" transform="translate(-266.773 -86.003)" fill="#96b820"/>
        <path id="Caminho_9151" data-name="Caminho 9151" d="M293.253,113.28l-31.4-7.985.132-.528,31.4,8.051Z" transform="translate(-266.801 -85.892)" fill="#95b721"/>
        <path id="Caminho_9152" data-name="Caminho 9152" d="M293.346,113l-31.4-8.051.132-.462,31.4,7.985Z" transform="translate(-266.829 -85.808)" fill="#94b720"/>
        <path id="Caminho_9153" data-name="Caminho 9153" d="M293.44,112.624l-31.4-8.051.132-.462,31.4,7.985Z" transform="translate(-266.856 -85.698)" fill="#93b61f"/>
        <path id="Caminho_9154" data-name="Caminho 9154" d="M293.534,112.249l-31.4-7.985.132-.528,31.4,8.051Z" transform="translate(-266.884 -85.587)" fill="#91b51f"/>
        <path id="Caminho_9155" data-name="Caminho 9155" d="M293.627,111.874l-31.4-7.985.132-.528,31.4,8.051Z" transform="translate(-266.912 -85.476)" fill="#90b520"/>
        <path id="Caminho_9156" data-name="Caminho 9156" d="M293.721,111.593l-31.4-8.051.132-.462,31.4,7.985Z" transform="translate(-266.939 -85.393)" fill="#8eb522"/>
        <path id="Caminho_9157" data-name="Caminho 9157" d="M293.815,111.218l-31.4-8.051.132-.462,31.333,7.985Z" transform="translate(-266.967 -85.282)" fill="#8db421"/>
        <path id="Caminho_9158" data-name="Caminho 9158" d="M293.909,110.843l-31.4-7.985.132-.528,31.333,8.051Z" transform="translate(-266.995 -85.171)" fill="#8cb422"/>
        <path id="Caminho_9159" data-name="Caminho 9159" d="M293.936,110.469,262.6,102.483l.132-.528,31.332,8.051Z" transform="translate(-267.023 -85.06)" fill="#8ab322"/>
        <path id="Caminho_9160" data-name="Caminho 9160" d="M294.03,110.187,262.7,102.136l.132-.462,31.332,7.985Z" transform="translate(-267.05 -84.977)" fill="#8cb424"/>
        <path id="Caminho_9161" data-name="Caminho 9161" d="M294.124,109.813l-31.332-8.051.132-.462,31.332,8.052Z" transform="translate(-267.078 -84.866)" fill="#8ab324"/>
        <path id="Caminho_9162" data-name="Caminho 9162" d="M294.217,109.438l-31.332-7.985.132-.528,31.332,8.051Z" transform="translate(-267.106 -84.755)" fill="#89b325"/>
        <path id="Caminho_9163" data-name="Caminho 9163" d="M294.311,109.129l-31.332-8.051.132-.528,31.332,8.051Z" transform="translate(-267.134 -84.644)" fill="#89b326"/>
        <path id="Caminho_9164" data-name="Caminho 9164" d="M294.4,108.782l-31.333-8.051.132-.462,31.332,7.985Z" transform="translate(-267.161 -84.561)" fill="#86b226"/>
        <path id="Caminho_9165" data-name="Caminho 9165" d="M294.5,108.407l-31.332-8.051.132-.462,31.332,8.051Z" transform="translate(-267.189 -84.45)" fill="#86b225"/>
        <path id="Caminho_9166" data-name="Caminho 9166" d="M294.592,108.032l-31.332-7.985.132-.528,31.332,8.052Z" transform="translate(-267.217 -84.339)" fill="#85b126"/>
        <path id="Caminho_9167" data-name="Caminho 9167" d="M294.686,107.723l-31.332-8.051.132-.528,31.332,8.051Z" transform="translate(-267.244 -84.228)" fill="#84b127"/>
        <path id="Caminho_9168" data-name="Caminho 9168" d="M294.779,107.376l-31.332-8.051.066-.462,31.4,7.985Z" transform="translate(-267.272 -84.145)" fill="#84b12b"/>
        <path id="Caminho_9169" data-name="Caminho 9169" d="M294.873,107l-31.332-8.051.065-.462,31.4,8.051Z" transform="translate(-267.3 -84.034)" fill="#85b22f"/>
        <path id="Caminho_9170" data-name="Caminho 9170" d="M294.939,106.626l-31.4-7.985.132-.528,31.4,8.052Z" transform="translate(-267.3 -83.923)" fill="#85b335"/>
        <path id="Caminho_9171" data-name="Caminho 9171" d="M295.032,106.317l-31.4-8.051.132-.528,31.4,8.051Z" transform="translate(-267.327 -83.812)" fill="#85b335"/>
        <path id="Caminho_9172" data-name="Caminho 9172" d="M295.126,105.97l-31.4-8.051.132-.462,31.4,7.985Z" transform="translate(-267.355 -83.729)" fill="#86b339"/>
        <path id="Caminho_9173" data-name="Caminho 9173" d="M295.22,105.6l-31.4-8.051.132-.462,31.4,8.051Z" transform="translate(-267.383 -83.618)" fill="#86b33c"/>
        <path id="Caminho_9174" data-name="Caminho 9174" d="M295.314,105.22l-31.4-7.985.132-.528,31.4,8.051Z" transform="translate(-267.411 -83.507)" fill="#87b43e"/>
        <path id="Caminho_9175" data-name="Caminho 9175" d="M295.407,104.911l-31.4-8.051.132-.528,31.4,8.051Z" transform="translate(-267.438 -83.396)" fill="#87b441"/>
        <path id="Caminho_9176" data-name="Caminho 9176" d="M295.5,104.564l-31.4-8.051.132-.462,31.4,7.985Z" transform="translate(-267.466 -83.313)" fill="#87b545"/>
        <path id="Caminho_9177" data-name="Caminho 9177" d="M295.595,104.189l-31.4-8.051.132-.462,31.4,8.051Z" transform="translate(-267.494 -83.202)" fill="#88b64a"/>
        <path id="Caminho_9178" data-name="Caminho 9178" d="M295.688,103.814l-31.4-7.985.132-.528,31.4,8.051Z" transform="translate(-267.521 -83.091)" fill="#87b64c"/>
        <path id="Caminho_9179" data-name="Caminho 9179" d="M295.782,103.533l-31.4-8.051.132-.462,31.4,7.985Z" transform="translate(-267.549 -83.008)" fill="#88b750"/>
        <path id="Caminho_9180" data-name="Caminho 9180" d="M295.876,103.158l-31.4-8.051.132-.462,31.4,7.985Z" transform="translate(-267.577 -82.897)" fill="#89b753"/>
        <path id="Caminho_9181" data-name="Caminho 9181" d="M295.969,102.783l-31.4-7.985.132-.528,31.333,8.052Z" transform="translate(-267.605 -82.786)" fill="#88b757"/>
        <path id="Caminho_9182" data-name="Caminho 9182" d="M296.063,102.409l-31.4-7.985.132-.528,31.333,8.051Z" transform="translate(-267.632 -82.675)" fill="#89b858"/>
        <path id="Caminho_9183" data-name="Caminho 9183" d="M296.091,102.127l-31.332-8.051.132-.462,31.332,7.985Z" transform="translate(-267.66 -82.592)" fill="#8ab95a"/>
        <path id="Caminho_9184" data-name="Caminho 9184" d="M296.184,101.753,264.852,93.7l.132-.462,31.332,7.985Z" transform="translate(-267.688 -82.481)" fill="#8ab95e"/>
        <path id="Caminho_9185" data-name="Caminho 9185" d="M296.278,101.378l-31.332-7.985.132-.528,31.332,8.051Z" transform="translate(-267.715 -82.371)" fill="#8bba60"/>
        <path id="Caminho_9186" data-name="Caminho 9186" d="M296.372,101,265.04,93.017l.132-.528,31.332,8.052Z" transform="translate(-267.743 -82.26)" fill="#8aba64"/>
        <path id="Caminho_9187" data-name="Caminho 9187" d="M296.465,100.722,265.133,92.67l.132-.462,31.332,7.985Z" transform="translate(-267.771 -82.176)" fill="#8bbb68"/>
        <path id="Caminho_9188" data-name="Caminho 9188" d="M296.559,100.347,265.227,92.3l.132-.462,31.332,7.985Z" transform="translate(-267.799 -82.066)" fill="#8bbc6c"/>
        <path id="Caminho_9189" data-name="Caminho 9189" d="M296.653,99.972l-31.332-7.985.132-.528,31.332,8.051Z" transform="translate(-267.826 -81.955)" fill="#8bbc6e"/>
        <path id="Caminho_9190" data-name="Caminho 9190" d="M296.746,99.6l-31.332-7.985.132-.528,31.332,8.051Z" transform="translate(-267.854 -81.844)" fill="#8cbd72"/>
        <path id="Caminho_9191" data-name="Caminho 9191" d="M296.84,99.316l-31.332-8.051.065-.462,31.4,7.985Z" transform="translate(-267.882 -81.761)" fill="#8cbd77"/>
        <path id="Caminho_9192" data-name="Caminho 9192" d="M296.934,98.941,265.6,90.889l.066-.462,31.4,8.051Z" transform="translate(-267.909 -81.65)" fill="#8cbe79"/>
        <path id="Caminho_9193" data-name="Caminho 9193" d="M297,98.566l-31.4-7.985.132-.528,31.4,8.051Z" transform="translate(-267.909 -81.539)" fill="#8cbe7d"/>
        <path id="Caminho_9194" data-name="Caminho 9194" d="M297.093,98.257l-31.4-8.051.132-.528,31.4,8.051Z" transform="translate(-267.937 -81.428)" fill="#8cbf80"/>
        <path id="Caminho_9195" data-name="Caminho 9195" d="M297.187,97.91l-31.4-8.051.132-.462,31.4,7.985Z" transform="translate(-267.965 -81.345)" fill="#8cbf81"/>
        <path id="Caminho_9196" data-name="Caminho 9196" d="M297.281,97.535l-31.4-8.051.132-.462,31.4,8.051Z" transform="translate(-267.992 -81.234)" fill="#8cbf83"/>
        <path id="Caminho_9197" data-name="Caminho 9197" d="M297.374,97.16l-31.4-7.985.132-.528,31.4,8.051Z" transform="translate(-268.02 -81.123)" fill="#8dc087"/>
        <path id="Caminho_9198" data-name="Caminho 9198" d="M297.468,96.851,266.07,88.8l.132-.528,31.4,8.051Z" transform="translate(-268.048 -81.012)" fill="#8cc18b"/>
        <path id="Caminho_9199" data-name="Caminho 9199" d="M297.562,96.5l-31.4-8.051.132-.462,31.4,7.985Z" transform="translate(-268.076 -80.929)" fill="#8dc18d"/>
        <path id="Caminho_9200" data-name="Caminho 9200" d="M297.655,96.129l-31.4-8.051.132-.462,31.4,8.051Z" transform="translate(-268.103 -80.818)" fill="#8cc191"/>
        <path id="Caminho_9201" data-name="Caminho 9201" d="M297.749,95.754l-31.4-7.985.132-.528,31.4,8.051Z" transform="translate(-268.131 -80.707)" fill="#8dc293"/>
        <path id="Caminho_9202" data-name="Caminho 9202" d="M297.843,95.445l-31.4-8.051.132-.528,31.4,8.051Z" transform="translate(-268.159 -80.596)" fill="#8cc296"/>
        <path id="Caminho_9203" data-name="Caminho 9203" d="M297.936,95.1l-31.4-8.051.132-.462,31.4,7.985Z" transform="translate(-268.187 -80.513)" fill="#8dc39a"/>
        <path id="Caminho_9204" data-name="Caminho 9204" d="M298.03,94.723l-31.4-8.051.132-.462L298.1,94.262Z" transform="translate(-268.214 -80.402)" fill="#8dc39b"/>
        <path id="Caminho_9205" data-name="Caminho 9205" d="M298.124,94.349l-31.4-7.985.132-.528,31.333,8.051Z" transform="translate(-268.242 -80.291)" fill="#8dc4a0"/>
        <path id="Caminho_9206" data-name="Caminho 9206" d="M298.152,94.04l-31.332-8.051.132-.528,31.332,8.051Z" transform="translate(-268.27 -80.18)" fill="#8ec5a1"/>
        <path id="Caminho_9207" data-name="Caminho 9207" d="M298.245,93.693l-31.332-8.051.132-.462,31.332,7.985Z" transform="translate(-268.297 -80.097)" fill="#8fc5a3"/>
        <path id="Caminho_9208" data-name="Caminho 9208" d="M298.339,93.318l-31.332-8.051.132-.462,31.332,8.051Z" transform="translate(-268.325 -79.986)" fill="#8ec6a5"/>
        <path id="Caminho_9209" data-name="Caminho 9209" d="M298.433,92.943,267.1,84.957l.132-.528,31.332,8.051Z" transform="translate(-268.353 -79.875)" fill="#8fc6a9"/>
        <path id="Caminho_9210" data-name="Caminho 9210" d="M298.526,92.662,267.194,84.61l.132-.462,31.332,7.985Z" transform="translate(-268.381 -79.792)" fill="#90c7ab"/>
        <path id="Caminho_9211" data-name="Caminho 9211" d="M298.62,92.287l-31.332-8.051.132-.462,31.332,7.985Z" transform="translate(-268.408 -79.681)" fill="#90c8ad"/>
        <path id="Caminho_9212" data-name="Caminho 9212" d="M298.714,91.912l-31.332-7.985.132-.528,31.332,8.051Z" transform="translate(-268.436 -79.57)" fill="#90c8b1"/>
        <path id="Caminho_9213" data-name="Caminho 9213" d="M298.807,91.537l-31.332-7.985.132-.528,31.332,8.051Z" transform="translate(-268.464 -79.459)" fill="#8fc8b2"/>
        <path id="Caminho_9214" data-name="Caminho 9214" d="M298.9,91.256,267.569,83.2l.132-.462,31.332,7.985Z" transform="translate(-268.491 -79.376)" fill="#90c9b5"/>
        <path id="Caminho_9215" data-name="Caminho 9215" d="M298.994,90.881l-31.333-8.051.066-.462,31.4,7.985Z" transform="translate(-268.519 -79.265)" fill="#90c9b7"/>
        <path id="Caminho_9216" data-name="Caminho 9216" d="M299.088,90.506l-31.332-7.985.066-.528,31.4,8.051Z" transform="translate(-268.547 -79.154)" fill="#91cabb"/>
        <path id="Caminho_9217" data-name="Caminho 9217" d="M299.154,90.131l-31.4-7.985.132-.528,31.4,8.051Z" transform="translate(-268.547 -79.043)" fill="#91cabd"/>
        <path id="Caminho_9218" data-name="Caminho 9218" d="M299.248,89.85,267.85,81.8l.132-.462,31.4,7.985Z" transform="translate(-268.574 -78.96)" fill="#92cbbd"/>
        <path id="Caminho_9219" data-name="Caminho 9219" d="M299.342,89.475l-31.4-8.051.132-.462,31.4,8.051Z" transform="translate(-268.602 -78.849)" fill="#92cbc0"/>
        <path id="Caminho_9220" data-name="Caminho 9220" d="M299.435,89.1l-31.4-7.985.132-.528,31.4,8.052Z" transform="translate(-268.63 -78.738)" fill="#92ccc3"/>
        <path id="Caminho_9221" data-name="Caminho 9221" d="M299.529,88.791l-31.4-8.051.132-.528,31.4,8.051Z" transform="translate(-268.658 -78.628)" fill="#93ccc5"/>
        <path id="Caminho_9222" data-name="Caminho 9222" d="M299.623,88.444l-31.4-8.051.132-.462,31.4,7.985Z" transform="translate(-268.685 -78.544)" fill="#93cdc8"/>
        <path id="Caminho_9223" data-name="Caminho 9223" d="M299.716,88.069l-31.4-8.051.132-.462,31.4,8.051Z" transform="translate(-268.713 -78.433)" fill="#92cdca"/>
        <path id="Caminho_9224" data-name="Caminho 9224" d="M299.81,87.694l-31.4-7.985.132-.528,31.4,8.052Z" transform="translate(-268.741 -78.323)" fill="#92cdcd"/>
        <path id="Caminho_9225" data-name="Caminho 9225" d="M299.9,87.385l-31.4-8.051.132-.528,31.4,8.051Z" transform="translate(-268.768 -78.212)" fill="#92cecf"/>
        <path id="Caminho_9226" data-name="Caminho 9226" d="M300,87.038l-31.4-8.051.132-.462,31.4,7.985Z" transform="translate(-268.796 -78.129)" fill="#93cfd2"/>
        <path id="Caminho_9227" data-name="Caminho 9227" d="M300.091,86.663l-31.4-8.051.132-.462L300.157,86.2Z" transform="translate(-268.824 -78.018)" fill="#94cfd4"/>
        <path id="Caminho_9228" data-name="Caminho 9228" d="M300.185,86.289l-31.4-7.985.132-.528,31.333,8.051Z" transform="translate(-268.852 -77.907)" fill="#95d0d6"/>
        <path id="Caminho_9229" data-name="Caminho 9229" d="M300.212,85.98,268.88,77.928l.132-.528,31.332,8.051Z" transform="translate(-268.879 -77.796)" fill="#94d0d7"/>
        <path id="Caminho_9230" data-name="Caminho 9230" d="M300.306,85.633l-31.332-8.051.132-.462L300.438,85.1Z" transform="translate(-268.907 -77.713)" fill="#95d0d9"/>
        <path id="Caminho_9231" data-name="Caminho 9231" d="M300.4,85.258l-31.333-8.051.132-.462L300.531,84.8Z" transform="translate(-268.935 -77.602)" fill="#96d1db"/>
      </g>
    </g>
    <path id="Caminho_9233" data-name="Caminho 9233" d="M312.052,151.227a13.789,13.789,0,0,0,4.749-.792,13.4,13.4,0,0,0,6.728-5.28,14.077,14.077,0,0,0,1.847-3.893,14.367,14.367,0,0,0,.66-4.421v-.066a14.071,14.071,0,0,0-.66-4.421,13.482,13.482,0,0,0-1.781-3.96,16.564,16.564,0,0,0-2.9-3.167,15.754,15.754,0,0,0-3.892-2.112,15.47,15.47,0,0,0-9.367,0,15.763,15.763,0,0,0-3.891,2.112,14.664,14.664,0,0,0-2.9,3.167,15.586,15.586,0,0,0-1.847,3.96,16.259,16.259,0,0,0-.594,4.421v.066a16.62,16.62,0,0,0,.594,4.421,16.251,16.251,0,0,0,1.847,3.893,13.4,13.4,0,0,0,6.728,5.28,13.682,13.682,0,0,0,4.683.792m.132-1.254a12.579,12.579,0,0,1-4.221-.66,12.406,12.406,0,0,1-3.43-1.914,14.136,14.136,0,0,1-2.7-2.9,14.424,14.424,0,0,1-2.243-7.721v-.066a14.285,14.285,0,0,1,.594-4.092,12.5,12.5,0,0,1,1.649-3.563,10.8,10.8,0,0,1,2.639-2.838,10.918,10.918,0,0,1,3.43-1.914,12.508,12.508,0,0,1,4.156-.726,11.935,11.935,0,0,1,4.155.726,11.246,11.246,0,0,1,3.5,1.914,11.1,11.1,0,0,1,2.639,2.9,13.692,13.692,0,0,1,1.715,3.564,14.285,14.285,0,0,1,.594,4.092v.132a13.51,13.51,0,0,1-.594,4.026,13.935,13.935,0,0,1-1.648,3.63,13.518,13.518,0,0,1-2.639,2.838,12.8,12.8,0,0,1-3.5,1.914,11.819,11.819,0,0,1-4.09.66" transform="translate(-34.972 -13.142)" fill="#3a3939"/>
    <path id="Caminho_9234" data-name="Caminho 9234" d="M347.753,150.958h1.32V139.013h9.894l9.1,11.945h1.715l-9.3-12.077a14.126,14.126,0,0,0,3.562-.791,9.488,9.488,0,0,0,2.771-1.584,6.268,6.268,0,0,0,1.781-2.376,6.989,6.989,0,0,0,.659-3.167V130.9a8.41,8.41,0,0,0-.527-2.9,6.7,6.7,0,0,0-1.517-2.31,8.877,8.877,0,0,0-3.3-1.914,12.7,12.7,0,0,0-4.683-.726H347.753Zm1.32-13.2V124.3h10.092a12.776,12.776,0,0,1,4.75.792,6.494,6.494,0,0,1,2.968,2.31,6.277,6.277,0,0,1,.989,3.564v.065a5.781,5.781,0,0,1-1.055,3.5,6.167,6.167,0,0,1-3.035,2.376,11.974,11.974,0,0,1-4.881.858Z" transform="translate(-49.631 -13.336)" fill="#3a3939"/>
    <path id="Caminho_9235" data-name="Caminho 9235" d="M397.309,151.188a11.64,11.64,0,0,0,3.826-.594,7.138,7.138,0,0,0,2.968-1.584,7.034,7.034,0,0,0,1.913-2.31,6.609,6.609,0,0,0,.66-3.036V143.6a6.732,6.732,0,0,0-.462-2.64,6.107,6.107,0,0,0-1.649-2.046,9.308,9.308,0,0,0-2.9-1.65,28.149,28.149,0,0,0-4.419-1.188,29.277,29.277,0,0,1-4.221-1.122,13.7,13.7,0,0,1-2.638-1.386A4.383,4.383,0,0,1,389,131.786a5.238,5.238,0,0,1-.4-2.112v-.132a4.827,4.827,0,0,1,.527-2.178,6.091,6.091,0,0,1,1.517-1.914,9.454,9.454,0,0,1,2.441-1.254,9.276,9.276,0,0,1,3.1-.462,13.955,13.955,0,0,1,4.683.792,12.723,12.723,0,0,1,4.09,2.31l.791-1.122a15.144,15.144,0,0,0-4.288-2.376,14.381,14.381,0,0,0-5.211-.858,12.693,12.693,0,0,0-3.628.528,9.855,9.855,0,0,0-2.836,1.584,6.239,6.239,0,0,0-1.847,2.31,5.784,5.784,0,0,0-.725,2.772v.066a6.06,6.06,0,0,0,.989,3.5,7.189,7.189,0,0,0,3.034,2.376,24.483,24.483,0,0,0,5.475,1.716,31.671,31.671,0,0,1,4.221,1.122,9.834,9.834,0,0,1,2.639,1.386,4.978,4.978,0,0,1,1.385,1.716,5.349,5.349,0,0,1,.4,2.178v.065a5.809,5.809,0,0,1-.989,3.168,6.608,6.608,0,0,1-2.77,2.178,10.483,10.483,0,0,1-4.222.792,13.605,13.605,0,0,1-5.541-1.056,15.748,15.748,0,0,1-4.75-3.168l-.923.99a16.66,16.66,0,0,0,5.145,3.3,14.763,14.763,0,0,0,6,1.188" transform="translate(-60.993 -13.17)" fill="#3a3939"/>
    <path id="Caminho_9236" data-name="Caminho 9236" d="M185.012,184.143h.66v-7.985h2.968v-.594h-6.6v.594h2.969Zm18.4.2a5.158,5.158,0,0,0,1.451-.264,5.361,5.361,0,0,0,1.187-.661,4.422,4.422,0,0,0,.923-.989,4.977,4.977,0,0,0,.528-1.188,4.954,4.954,0,0,0,0-2.772,9.468,9.468,0,0,0-.528-1.188,4.438,4.438,0,0,0-.923-.989,5.074,5.074,0,0,0-1.187-.661,5.422,5.422,0,0,0-2.9,0,5.073,5.073,0,0,0-1.187.661,4.324,4.324,0,0,0-.923.989,4.372,4.372,0,0,0-.594,1.254,4.245,4.245,0,0,0-.2,1.32v.065a4.248,4.248,0,0,0,.2,1.32,4.359,4.359,0,0,0,.594,1.253,4.058,4.058,0,0,0,.923.924,3.459,3.459,0,0,0,1.187.661,4.751,4.751,0,0,0,1.451.264m0-.594a3.454,3.454,0,0,1-1.187-.2,5.282,5.282,0,0,1-1.056-.528,4.547,4.547,0,0,1-.725-.858,3.182,3.182,0,0,1-.528-1.056,4.071,4.071,0,0,1,0-2.508,7.393,7.393,0,0,1,.462-1.056,8.917,8.917,0,0,1,.792-.791,2.425,2.425,0,0,1,.989-.528,3.828,3.828,0,0,1,1.253-.2,3.721,3.721,0,0,1,1.187.2,2.854,2.854,0,0,1,.989.528,3.217,3.217,0,0,1,.792.858,5.286,5.286,0,0,1,.528,1.056,7.319,7.319,0,0,1,.132,1.188v.065a7.319,7.319,0,0,1-.132,1.188,5.286,5.286,0,0,1-.528,1.056,3.228,3.228,0,0,1-.792.858,3.5,3.5,0,0,1-.989.528,3.742,3.742,0,0,1-1.187.2m16.029.4h2.836a5.61,5.61,0,0,0,1.517-.2,3.668,3.668,0,0,0,1.253-.594,4.442,4.442,0,0,0,.989-.924,3.358,3.358,0,0,0,.594-1.188,4.4,4.4,0,0,0,.2-1.386,3.8,3.8,0,0,0-.33-1.716,4.258,4.258,0,0,0-2.374-2.244,5.417,5.417,0,0,0-1.847-.33h-2.836Zm.594-.594v-7.392h2.243a6.647,6.647,0,0,1,1.649.264,3.05,3.05,0,0,1,1.187.858,3.181,3.181,0,0,1,.792,1.122,3.554,3.554,0,0,1,.264,1.452v.065a3.247,3.247,0,0,1-.264,1.386,2.9,2.9,0,0,1-.792,1.188,3.732,3.732,0,0,1-1.187.792,4.557,4.557,0,0,1-1.649.264Zm18.536.594h6.2v-.594h-5.541v-3.432h4.881v-.594h-4.881v-3.366h5.475v-.594h-6.134Zm20.646.132a6.509,6.509,0,0,0,1.187-.132,2.325,2.325,0,0,0,.858-.527,2.078,2.078,0,0,0,.594-.726,2.114,2.114,0,0,0,.2-.924V181.9a1.507,1.507,0,0,0-.264-1.056,2.194,2.194,0,0,0-.923-.791,6.312,6.312,0,0,0-1.583-.528,4.859,4.859,0,0,1-1.253-.33,4.375,4.375,0,0,1-.791-.4,1.023,1.023,0,0,1-.4-.528,1.819,1.819,0,0,1-.066-.594,1.086,1.086,0,0,1,.132-.66,1.586,1.586,0,0,1,.4-.528,3.076,3.076,0,0,1,.66-.33,3.848,3.848,0,0,1,.858-.132,4.673,4.673,0,0,1,1.385.2,4.128,4.128,0,0,1,1.187.792l.462-.528a7.236,7.236,0,0,0-.924-.594,3.8,3.8,0,0,0-.923-.33,5.784,5.784,0,0,0-1.122-.132,3.084,3.084,0,0,0-1.121.2,3.581,3.581,0,0,0-.858.462,2.076,2.076,0,0,0-.594.726,2.039,2.039,0,0,0-.2.858v.065a2.172,2.172,0,0,0,.264,1.122,3.217,3.217,0,0,0,.989.791,12.174,12.174,0,0,0,1.649.528c.462.066.858.2,1.187.264a2.359,2.359,0,0,1,.725.4,1.384,1.384,0,0,1,.4.528,1.919,1.919,0,0,1,.132.594v.065a1.877,1.877,0,0,1-.264.858,1.8,1.8,0,0,1-.792.594,5.563,5.563,0,0,1-1.121.264,3.459,3.459,0,0,1-1.188-.2,3.122,3.122,0,0,1-.989-.4,7.371,7.371,0,0,1-.923-.726l-.4.462a4.015,4.015,0,0,0,1.056.791,5.64,5.64,0,0,0,1.121.462,7.279,7.279,0,0,0,1.253.132m18.4.066a4.241,4.241,0,0,0,1.32-.2,4.421,4.421,0,0,0,1.121-.527l.989-.792-.462-.4a8.416,8.416,0,0,1-.857.726,6.742,6.742,0,0,1-.989.462,5.858,5.858,0,0,1-1.122.132,3.586,3.586,0,0,1-1.451-.33,4.333,4.333,0,0,1-1.121-.791,4.055,4.055,0,0,1-.792-1.254,5.184,5.184,0,0,1-.264-1.517,5.607,5.607,0,0,1,.264-1.518,5.018,5.018,0,0,1,.792-1.254,4.334,4.334,0,0,1,1.121-.791,3.541,3.541,0,0,1,1.451-.264,3.659,3.659,0,0,1,1.187.132,4.045,4.045,0,0,1,.924.462,7.1,7.1,0,0,1,.791.66l.461-.462c-.2-.2-.461-.4-.659-.594a4.393,4.393,0,0,0-.791-.4,3.315,3.315,0,0,0-.858-.33,5.319,5.319,0,0,0-1.056-.066,3.79,3.79,0,0,0-2.572.858,4.44,4.44,0,0,0-.924.989,3.37,3.37,0,0,0-.594,1.188,5.041,5.041,0,0,0-.2,1.387v.065a5.036,5.036,0,0,0,.2,1.386,3.363,3.363,0,0,0,.594,1.188,4.429,4.429,0,0,0,.924.99,3.348,3.348,0,0,0,1.187.594,4.318,4.318,0,0,0,1.385.264m14.71-.2h.594v-4.026h5.54v4.026h.594v-8.579h-.594v3.96h-5.54v-3.96h-.594Zm18.931,0h.66v-8.58h-.66Zm12.8,0h.66v-7.589l6,7.589h.528v-8.579h-.66v7.457l-5.937-7.457h-.594Zm19.327,0h.66v-8.58h-.66Z" transform="translate(-0.609 -28.834)" fill="#3a3939"/>
  </g>
</svg>
