<svg xmlns="http://www.w3.org/2000/svg" width="157.2" height="33" viewBox="0 0 157.2 33">
  <g id="todeschini" transform="translate(-231.215 -617.066)">
    <path id="Caminho_7877" data-name="Caminho 7877" d="M247.9,627.323H231.215v3.19h6.749v23.327h3.191V630.514H247.9ZM290.678,648.8h3.191a2.552,2.552,0,0,0,5.1,0,2.634,2.634,0,0,0-.175-1.068,1.245,1.245,0,0,0-.39-.5,7.224,7.224,0,0,0-2.41-.945,9.5,9.5,0,0,1-3.433-1.495,5.074,5.074,0,0,1-1.89-4.193,5.746,5.746,0,0,1,11.491,0h-3.193a2.552,2.552,0,1,0-5.1,0c.037,1.077.26,1.319.665,1.68a6.81,6.81,0,0,0,2.309.929,13.134,13.134,0,0,1,2.7.974,4.7,4.7,0,0,1,2.178,2.267,5.767,5.767,0,1,1-11.044,2.349Zm61.914,5.041V640.607a2.553,2.553,0,0,0-5.107,0v13.234h-3.193V640.607a5.746,5.746,0,0,1,11.491,0v13.234Zm-70.7-2.49a2.554,2.554,0,0,1-2.552-2.551v-2.447h2.552a5.746,5.746,0,0,0,5.746-5.743h0a5.687,5.687,0,0,0-.938-3.141c-.016-.023-.029-.049-.044-.073s-.015-.019-.022-.029a5.737,5.737,0,0,0-4.742-2.5h0c-.026,0-.051,0-.077,0a5.742,5.742,0,0,0-5.667,5.743V648.8a5.745,5.745,0,0,0,11.49,0h-3.192A2.555,2.555,0,0,1,281.895,651.351Zm0-8.191h-2.552v-2.551a2.555,2.555,0,0,1,2.552-2.554,2.619,2.619,0,0,1,.5.049l.018,0a2.52,2.52,0,0,1,.445.136l.034.013c.038.016.075.035.112.053s.076.034.112.054a.337.337,0,0,1,.03.019,2.56,2.56,0,0,1,.869.8c.009.012.016.026.024.039.037.056.072.112.1.171.019.034.033.069.05.1s.04.078.057.119.035.094.051.141c.011.031.025.062.034.094s.022.085.033.127.022.078.03.118.014.084.019.125.016.086.02.128,0,.083.006.124.007.091.007.138A2.557,2.557,0,0,1,281.895,643.16Zm78.53-15.829h3.192v3.462h-3.192Zm0,8.235h3.192v18.276h-3.192Zm-23.967-8.235h3.193v3.462h-3.193Zm0,8.235h3.192v18.276h-3.192Zm-4.641,18.276V640.607a5.737,5.737,0,0,0-8.3-5.14v-8.138h-3.192v26.512h3.192V640.607a2.554,2.554,0,0,1,5.108,0v13.234Zm-62.7-26.512v8.137a5.737,5.737,0,0,0-8.3,5.14V648.8a5.745,5.745,0,0,0,11.491,0V627.329Zm0,21.471a2.553,2.553,0,0,1-5.106,0v-8.194a2.553,2.553,0,0,1,5.106,0Zm36.38,0v-8.191a5.745,5.745,0,1,1,11.49,0H313.8a2.554,2.554,0,1,0-5.108,0V648.8a2.554,2.554,0,0,0,5.108,0h3.191a5.745,5.745,0,0,1-11.49,0Zm-60.007,0v-8.191a5.745,5.745,0,1,1,11.49,0V648.8a5.745,5.745,0,0,1-11.49,0Zm3.192,0a2.554,2.554,0,0,0,5.107,0v-8.191a2.554,2.554,0,1,0-5.107,0Z" transform="translate(0 -4.478)" fill="#565656"/>
    <path id="Caminho_7878" data-name="Caminho 7878" d="M494.365,620.848a2.706,2.706,0,0,0-1.1-1.451,27.8,27.8,0,0,0-3.418-1.4,3.2,3.2,0,0,0-2.812.981,8.685,8.685,0,0,0-2.061,2.544c-2.624-4.254-5.233-4.73-6.3-4.357a34.677,34.677,0,0,0-3.843,2.118c-.371.377-.421,2.031,1.051,5.114,1.309,2.742,5.427,6.611,7.794,8.162a7.179,7.179,0,0,1-3.016.761c.24.705,1.985,1.049,2.716,1.086,2.129.109,6.091-1.7,8.68-5.186a13.232,13.232,0,0,0,2.359-4.722,5.893,5.893,0,0,0-.049-3.655M476.8,619.337a2.18,2.18,0,0,1,1.449-.223c2.572.664,5.013,3.34,6.216,4.841.648.873.752,1.255,1.139,1.2.875-.129.5-1.02.5-1.02-.028-.088-.057-.172-.086-.257l.016-.024c2.819-4.35,4.857-4.74,4.857-4.74,1.563,1.251.232,7.173-2.406,10.059a15.93,15.93,0,0,1-1.42,1.377,16.161,16.161,0,0,1-1.729,1.16C479.8,627.842,476.528,619.783,476.8,619.337Z" transform="translate(-106.267 0)" fill="#ea0000"/>
  </g>
</svg>
